<svg xmlns="http://www.w3.org/2000/svg" width="1600" height="1600" style="stroke:#7a52ff; fill:transparent;" viewBox="40 40 1520 1520"><defs><clipPath id="clip-path-0"><circle cx="800" cy="800" r="253.04999999999998" transform="matrix(1, 0, 0, 1, 0, 0)"/></clipPath><clipPath id="clip-path-1"><circle cx="800" cy="800" r="253.04999999999998" transform="matrix(1, 0, 0, 1, 0, 0)"/></clipPath><clipPath id="clip-path-2"><circle cx="800" cy="800" r="253.04999999999998" transform="matrix(1, 0, 0, 1, 0, 0)"/></clipPath><mask id="mask-0"><rect width="1600" height="1600" fill="white"/><circle cx="800" cy="1053.05" r="77" transform="matrix(1, 0, 0, 1, 0, 0)" fill="black"/></mask><mask id="mask-1"><rect width="1600" height="1600" fill="white"/><circle cx="959.1321679453906" cy="708.125" r="77" transform="matrix(1, 0, 0, 1, 0, 0)" fill="black"/></mask><mask id="mask-2"><rect width="1600" height="1600" fill="white"/><circle cx="580.8522715723478" cy="673.4749999999999" r="77" transform="matrix(1, 0, 0, 1, 0, 0)" fill="black"/></mask></defs><g transform="matrix(1, 0, 0, 1, 1.9778045806229755e-14, 323)"><g transform="matrix(1, 0, 0, 1, 0, 0)"><path d="M 978.9333709792559 978.9333709792558 A 253.04999999999998 253.04999999999998 0 0 1 621.0666290207441 978.9333709792559" fill="transparent" mask="url(#mask-0)" stroke-width="32" stroke="#7a52ff"/><path d="M 723 1053.05 A 77 77 0 0 1 877 1053.05" clip-path="url(#clip-path-0)" stroke-width="32" stroke="#7a52ff"/><circle cx="873.2313517547268" cy="1029.255691433129" r="20" stroke-width="0" fill="#7a52ff"/><circle cx="862.294308566871" cy="1007.7905355734795" r="20" stroke-width="0" fill="#7a52ff"/><circle cx="845.2594644265205" cy="990.755691433129" r="20" stroke-width="0" fill="#7a52ff"/><circle cx="800" cy="1053.05" r="38" stroke-width="32" stroke="#7a52ff"/><line x1="800" y1="1015.05" x2="800" y2="939.05" stroke-width="32" stroke="#7a52ff"/></g><g transform="matrix(1, 0, 0, 1, 0, 0)"><path d="M 978.9333709792558 621.0666290207441 A 253.04999999999998 253.04999999999998 0 0 1 978.9333709792559 978.9333709792559" fill="transparent" mask="undefined" stroke-width="32" stroke="#7a52ff"/><circle cx="956.8" cy="800" r="77" stroke-width="32" stroke="#7a52ff"/><circle cx="921.8427315200548" cy="731.3924976374957" r="20" stroke-width="0" fill="#7a52ff"/><circle cx="902.3527778486358" cy="745.5527778486359" r="20" stroke-width="0" fill="#7a52ff"/><circle cx="879.8" cy="800" r="38" stroke-width="32" stroke="#7a52ff"/></g><g transform="matrix(1, 0, 0, 1, 0, 0)"><path d="M 621.0666290207441 621.0666290207441 A 253.04999999999998 253.04999999999998 0 0 1 978.9333709792559 621.0666290207441" fill="transparent" mask="undefined" stroke-width="32" stroke="#7a52ff"/><circle cx="800" cy="546.95" r="38" stroke-width="32" stroke="#7a52ff"/><line x1="800" y1="508.95000000000005" x2="800" y2="432.95000000000005" stroke-width="32" stroke="#7a52ff"/></g><g transform="matrix(1, 0, 0, 1, 0, 0)"><path d="M 621.0666290207441 978.9333709792559 A 253.04999999999998 253.04999999999998 0 0 1 621.0666290207441 621.0666290207441" fill="transparent" mask="undefined" stroke-width="32" stroke="#7a52ff"/><circle cx="643.2" cy="800" r="77" stroke-width="32" stroke="#7a52ff"/><circle cx="678.1572684799452" cy="868.6075023625043" r="20" stroke-width="0" fill="#7a52ff"/><circle cx="697.6472221513642" cy="854.4472221513641" r="20" stroke-width="0" fill="#7a52ff"/><circle cx="643.2" cy="800" r="38" stroke-width="32" stroke="#7a52ff"/><circle cx="643.2" cy="800" r="24.7" stroke-width="40" stroke="#7a52ff"/><line x1="667.9000000000001" y1="800" x2="717.3000000000001" y2="800" stroke-width="40" stroke="#7a52ff"/></g></g><g transform="matrix(1, 0, 0, 1, 1.9778045806229755e-14, -323)"><g transform="matrix(1, 0, 0, 1, 0, 0)"><path d="M 1019.1477284276523 926.5249999999999 A 253.04999999999998 253.04999999999998 0 0 1 580.8522715723478 926.5250000000001" fill="transparent" mask="undefined" stroke-width="32" stroke="#7a52ff"/><circle cx="800" cy="956.8" r="77" stroke-width="32" stroke="#7a52ff"/><circle cx="873.2313517547268" cy="933.005691433129" r="20" stroke-width="0" fill="#7a52ff"/><circle cx="862.294308566871" cy="911.5405355734795" r="20" stroke-width="0" fill="#7a52ff"/><circle cx="845.2594644265205" cy="894.505691433129" r="20" stroke-width="0" fill="#7a52ff"/><circle cx="800" cy="1119.55" r="38" stroke-width="32" stroke="#7a52ff"/></g><g transform="matrix(1, 0, 0, 1, 0, 0)"><path d="M 800.0000000000002 546.95 A 253.04999999999998 253.04999999999998 0 0 1 1019.1477284276522 926.525" fill="transparent" mask="url(#mask-1)" stroke-width="32" stroke="#7a52ff"/><path d="M 1036.0266421214928 704.0951313692933 A 77 77 0 1 1 1001.0693736415477 643.5473662682023" clip-path="url(#clip-path-1)" stroke-width="32" stroke="#7a52ff"/></g><g transform="matrix(1, 0, 0, 1, 0, 0)"><path d="M 580.8522715723477 926.5249999999999 A 253.04999999999998 253.04999999999998 0 0 1 800.0000000000001 546.95" fill="transparent" mask="url(#mask-2)" stroke-width="32" stroke="#7a52ff"/><path d="M 619.3522715723478 606.7910439085981 A 77 77 0 0 1 542.3522715723478 740.1589560914017" clip-path="url(#clip-path-2)" stroke-width="32" stroke="#7a52ff"/><line x1="564.8430713793804" y1="748.792365256503" x2="556.0380112732482" y2="790.2169161475796" stroke-width="32" stroke="#7a52ff"/><line x1="588.9009632439571" y1="750.053185943357" x2="593.3277436633422" y2="792.1711882122033" stroke-width="32" stroke="#7a52ff"/><line x1="612.1709930891844" y1="743.8180002384802" x2="629.3962899234446" y2="782.5066503696444" stroke-width="32" stroke="#7a52ff"/></g></g><g transform="matrix(1, 0, 0, 1, 0, 0)"><circle cx="800" cy="800" r="728" stroke-width="32" stroke="#7a52ff"/><circle cx="800" cy="800" r="723" stroke-width="32" stroke="#7a52ff"/></g></svg>